<svg width="451" height="524" viewBox="0 0 451 524" fill="none" xmlns="http://www.w3.org/2000/svg">
<g filter="url(#filter0_ddd_41_307)">
<path fill-rule="evenodd" clip-rule="evenodd" d="M3 149.714V431.651L57.119 460.634V176.999L250.881 63.2645V119.032L104.029 206.282L103.041 318.117L156.074 349.399L300.555 263.149L299.864 147.216L347.07 120.831L396.251 149.615V317.617L155.777 460.734V403.567L105.806 372.785L103.831 488.518L152.42 520L448 348.299V117.933L346.083 60.9659L300.16 89.8491V31.7828L250.979 2L3 149.714ZM155.382 231.267V286.935L249.597 232.966V176.999L155.382 231.267Z" fill="url(#paint0_linear_41_307)"/>
</g>
<defs>
<filter id="filter0_ddd_41_307" x="0" y="0" width="451" height="524" filterUnits="userSpaceOnUse" color-interpolation-filters="sRGB">
<feFlood flood-opacity="0" result="BackgroundImageFix"/>
<feColorMatrix in="SourceAlpha" type="matrix" values="0 0 0 0 0 0 0 0 0 0 0 0 0 0 0 0 0 0 127 0" result="hardAlpha"/>
<feMorphology radius="1" operator="erode" in="SourceAlpha" result="effect1_dropShadow_41_307"/>
<feOffset dy="2"/>
<feGaussianBlur stdDeviation="0.5"/>
<feComposite in2="hardAlpha" operator="out"/>
<feColorMatrix type="matrix" values="0 0 0 0 0 0 0 0 0 0 0 0 0 0 0 0 0 0 0.2 0"/>
<feBlend mode="normal" in2="BackgroundImageFix" result="effect1_dropShadow_41_307"/>
<feColorMatrix in="SourceAlpha" type="matrix" values="0 0 0 0 0 0 0 0 0 0 0 0 0 0 0 0 0 0 127 0" result="hardAlpha"/>
<feOffset dy="1"/>
<feGaussianBlur stdDeviation="0.5"/>
<feComposite in2="hardAlpha" operator="out"/>
<feColorMatrix type="matrix" values="0 0 0 0 0 0 0 0 0 0 0 0 0 0 0 0 0 0 0.14 0"/>
<feBlend mode="normal" in2="effect1_dropShadow_41_307" result="effect2_dropShadow_41_307"/>
<feColorMatrix in="SourceAlpha" type="matrix" values="0 0 0 0 0 0 0 0 0 0 0 0 0 0 0 0 0 0 127 0" result="hardAlpha"/>
<feOffset dy="1"/>
<feGaussianBlur stdDeviation="1.5"/>
<feComposite in2="hardAlpha" operator="out"/>
<feColorMatrix type="matrix" values="0 0 0 0 0 0 0 0 0 0 0 0 0 0 0 0 0 0 0.12 0"/>
<feBlend mode="normal" in2="effect2_dropShadow_41_307" result="effect3_dropShadow_41_307"/>
<feBlend mode="normal" in="SourceGraphic" in2="effect3_dropShadow_41_307" result="shape"/>
</filter>
<linearGradient id="paint0_linear_41_307" x1="225.5" y1="2" x2="225.5" y2="520" gradientUnits="userSpaceOnUse">
<stop stop-color="#FF9933"/>
<stop offset="0.500522" stop-color="#FF3366"/>
<stop offset="0.761448" stop-color="#E72074"/>
</linearGradient>
</defs>
</svg>
